<svg width="200" height="200" xmlns="http://www.w3.org/2000/svg">
  <defs>
    <pattern id="circuit" width="100" height="100" patternUnits="userSpaceOnUse">
      <!-- Horizontal Lines -->
      <line x1="0" y1="20" x2="40" y2="20" stroke="#00ffff" stroke-width="0.5" opacity="0.3"/>
      <line x1="60" y1="20" x2="100" y2="20" stroke="#00ffff" stroke-width="0.5" opacity="0.3"/>
      
      <line x1="0" y1="80" x2="30" y2="80" stroke="#00ffff" stroke-width="0.5" opacity="0.3"/>
      <line x1="50" y1="80" x2="100" y2="80" stroke="#00ffff" stroke-width="0.5" opacity="0.3"/>
      
      <!-- Vertical Lines -->
      <line x1="20" y1="0" x2="20" y2="40" stroke="#00ffff" stroke-width="0.5" opacity="0.3"/>
      <line x1="20" y1="60" x2="20" y2="100" stroke="#00ffff" stroke-width="0.5" opacity="0.3"/>
      
      <line x1="80" y1="0" x2="80" y2="30" stroke="#00ffff" stroke-width="0.5" opacity="0.3"/>
      <line x1="80" y1="50" x2="80" y2="100" stroke="#00ffff" stroke-width="0.5" opacity="0.3"/>
      
      <!-- Nodes -->
      <circle cx="20" cy="20" r="2" fill="#00ffff" opacity="0.5"/>
      <circle cx="20" cy="80" r="2" fill="#00ffff" opacity="0.5"/>
      <circle cx="80" cy="20" r="2" fill="#00ffff" opacity="0.5"/>
      <circle cx="80" cy="80" r="2" fill="#00ffff" opacity="0.5"/>
      
      <!-- Diagonal Lines -->
      <line x1="20" y1="20" x2="50" y2="50" stroke="#00ffff" stroke-width="0.5" opacity="0.3"/>
      <line x1="50" y1="50" x2="80" y2="80" stroke="#00ffff" stroke-width="0.5" opacity="0.3"/>
      
      <!-- Chip-like Rectangles -->
      <rect x="40" y="40" width="20" height="20" stroke="#00ffff" stroke-width="0.5" fill="none" opacity="0.3"/>
      
      <!-- Small Connection Points -->
      <circle cx="50" cy="20" r="1" fill="#00ffff" opacity="0.5"/>
      <circle cx="50" cy="80" r="1" fill="#00ffff" opacity="0.5"/>
      <circle cx="20" cy="50" r="1" fill="#00ffff" opacity="0.5"/>
      <circle cx="80" cy="50" r="1" fill="#00ffff" opacity="0.5"/>
    </pattern>
  </defs>
  <rect width="200" height="200" fill="url(#circuit)" />
</svg>